<svg xmlns="http://www.w3.org/2000/svg" xmlns:xlink="http://www.w3.org/1999/xlink" id="visual" viewBox="0 0 1920 1080" width="1920" height="1080" version="1.1"><path d="M0 665L22.8 647.2C45.7 629.3 91.3 593.7 137 589.7C182.7 585.7 228.3 613.3 274 624.3C319.7 635.3 365.3 629.7 411.2 632.8C457 636 503 648 548.8 660.5C594.7 673 640.3 686 686 674.2C731.7 662.3 777.3 625.7 823 604.7C868.7 583.7 914.3 578.3 960 578.5C1005.7 578.7 1051.3 584.3 1097 604.7C1142.7 625 1188.3 660 1234 672.8C1279.7 685.7 1325.3 676.3 1371.2 657.2C1417 638 1463 609 1508.8 602.2C1554.7 595.3 1600.3 610.7 1646 621.7C1691.7 632.7 1737.3 639.3 1783 637.5C1828.7 635.7 1874.3 625.3 1897.2 620.2L1920 615L1920 1081L1897.2 1081C1874.3 1081 1828.7 1081 1783 1081C1737.3 1081 1691.7 1081 1646 1081C1600.3 1081 1554.7 1081 1508.8 1081C1463 1081 1417 1081 1371.2 1081C1325.3 1081 1279.7 1081 1234 1081C1188.3 1081 1142.7 1081 1097 1081C1051.3 1081 1005.7 1081 960 1081C914.3 1081 868.7 1081 823 1081C777.3 1081 731.7 1081 686 1081C640.3 1081 594.7 1081 548.8 1081C503 1081 457 1081 411.2 1081C365.3 1081 319.7 1081 274 1081C228.3 1081 182.7 1081 137 1081C91.3 1081 45.7 1081 22.8 1081L0 1081Z" fill="#f59e0a"/><path d="M0 681L22.8 691.2C45.7 701.3 91.3 721.7 137 718.2C182.7 714.7 228.3 687.3 274 675C319.7 662.7 365.3 665.3 411.2 665.5C457 665.7 503 663.3 548.8 681.2C594.7 699 640.3 737 686 733.3C731.7 729.7 777.3 684.3 823 665C868.7 645.7 914.3 652.3 960 647.7C1005.7 643 1051.3 627 1097 621.3C1142.7 615.7 1188.3 620.3 1234 649.5C1279.7 678.7 1325.3 732.3 1371.2 742.5C1417 752.7 1463 719.3 1508.8 691.3C1554.7 663.3 1600.3 640.7 1646 657.2C1691.7 673.7 1737.3 729.3 1783 744.7C1828.7 760 1874.3 735 1897.2 722.5L1920 710L1920 1081L1897.2 1081C1874.3 1081 1828.7 1081 1783 1081C1737.3 1081 1691.7 1081 1646 1081C1600.3 1081 1554.7 1081 1508.8 1081C1463 1081 1417 1081 1371.2 1081C1325.3 1081 1279.7 1081 1234 1081C1188.3 1081 1142.7 1081 1097 1081C1051.3 1081 1005.7 1081 960 1081C914.3 1081 868.7 1081 823 1081C777.3 1081 731.7 1081 686 1081C640.3 1081 594.7 1081 548.8 1081C503 1081 457 1081 411.2 1081C365.3 1081 319.7 1081 274 1081C228.3 1081 182.7 1081 137 1081C91.3 1081 45.7 1081 22.8 1081L0 1081Z" fill="#e68a09"/><path d="M0 820L22.8 827.7C45.7 835.3 91.3 850.7 137 851.3C182.7 852 228.3 838 274 824.8C319.7 811.7 365.3 799.3 411.2 785C457 770.7 503 754.3 548.8 766.5C594.7 778.7 640.3 819.3 686 835.2C731.7 851 777.3 842 823 823.3C868.7 804.7 914.3 776.3 960 766C1005.7 755.7 1051.3 763.3 1097 771.3C1142.7 779.3 1188.3 787.7 1234 780.7C1279.7 773.7 1325.3 751.3 1371.2 744C1417 736.7 1463 744.3 1508.8 760.3C1554.7 776.3 1600.3 800.7 1646 820.2C1691.7 839.7 1737.3 854.3 1783 835.5C1828.7 816.7 1874.3 764.3 1897.2 738.2L1920 712L1920 1081L1897.2 1081C1874.3 1081 1828.7 1081 1783 1081C1737.3 1081 1691.7 1081 1646 1081C1600.3 1081 1554.7 1081 1508.8 1081C1463 1081 1417 1081 1371.2 1081C1325.3 1081 1279.7 1081 1234 1081C1188.3 1081 1142.7 1081 1097 1081C1051.3 1081 1005.7 1081 960 1081C914.3 1081 868.7 1081 823 1081C777.3 1081 731.7 1081 686 1081C640.3 1081 594.7 1081 548.8 1081C503 1081 457 1081 411.2 1081C365.3 1081 319.7 1081 274 1081C228.3 1081 182.7 1081 137 1081C91.3 1081 45.7 1081 22.8 1081L0 1081Z" fill="#d67709"/><path d="M0 941L22.8 924.5C45.7 908 91.3 875 137 853.8C182.7 832.7 228.3 823.3 274 830C319.7 836.7 365.3 859.3 411.2 867C457 874.7 503 867.3 548.8 877.5C594.7 887.7 640.3 915.3 686 908.2C731.7 901 777.3 859 823 842.7C868.7 826.3 914.3 835.7 960 857.2C1005.7 878.7 1051.3 912.3 1097 907.3C1142.7 902.3 1188.3 858.7 1234 859.2C1279.7 859.7 1325.3 904.3 1371.2 910.7C1417 917 1463 885 1508.8 869.2C1554.7 853.3 1600.3 853.7 1646 866.7C1691.7 879.7 1737.3 905.3 1783 919.3C1828.7 933.3 1874.3 935.7 1897.2 936.8L1920 938L1920 1081L1897.2 1081C1874.3 1081 1828.7 1081 1783 1081C1737.3 1081 1691.7 1081 1646 1081C1600.3 1081 1554.7 1081 1508.8 1081C1463 1081 1417 1081 1371.2 1081C1325.3 1081 1279.7 1081 1234 1081C1188.3 1081 1142.7 1081 1097 1081C1051.3 1081 1005.7 1081 960 1081C914.3 1081 868.7 1081 823 1081C777.3 1081 731.7 1081 686 1081C640.3 1081 594.7 1081 548.8 1081C503 1081 457 1081 411.2 1081C365.3 1081 319.7 1081 274 1081C228.3 1081 182.7 1081 137 1081C91.3 1081 45.7 1081 22.8 1081L0 1081Z" fill="#c56509"/><path d="M0 989L22.8 978.5C45.7 968 91.3 947 137 949.7C182.7 952.3 228.3 978.7 274 979.5C319.7 980.3 365.3 955.7 411.2 952.2C457 948.7 503 966.3 548.8 977.8C594.7 989.3 640.3 994.7 686 992.3C731.7 990 777.3 980 823 983.5C868.7 987 914.3 1004 960 997.8C1005.7 991.7 1051.3 962.3 1097 951.8C1142.7 941.3 1188.3 949.7 1234 962C1279.7 974.3 1325.3 990.7 1371.2 1003C1417 1015.3 1463 1023.7 1508.8 1020.7C1554.7 1017.7 1600.3 1003.3 1646 996.2C1691.7 989 1737.3 989 1783 984C1828.7 979 1874.3 969 1897.2 964L1920 959L1920 1081L1897.2 1081C1874.3 1081 1828.7 1081 1783 1081C1737.3 1081 1691.7 1081 1646 1081C1600.3 1081 1554.7 1081 1508.8 1081C1463 1081 1417 1081 1371.2 1081C1325.3 1081 1279.7 1081 1234 1081C1188.3 1081 1142.7 1081 1097 1081C1051.3 1081 1005.7 1081 960 1081C914.3 1081 868.7 1081 823 1081C777.3 1081 731.7 1081 686 1081C640.3 1081 594.7 1081 548.8 1081C503 1081 457 1081 411.2 1081C365.3 1081 319.7 1081 274 1081C228.3 1081 182.7 1081 137 1081C91.3 1081 45.7 1081 22.8 1081L0 1081Z" fill="#b45309"/></svg>
